<svg width="169" height="32" viewBox="0 0 169 32" fill="none" xmlns="http://www.w3.org/2000/svg">
<path d="M0.625 2.19437V0H19.9056C21.681 0 23.1987 0.695244 24.4619 2.08263C25.7252 3.47001 26.3552 5.14295 26.3552 7.10142C26.3552 9.0599 25.7221 10.7328 24.4619 12.1202C23.1987 13.5076 21.681 14.1997 19.9056 14.1997H2.62072V19.6841H0.625V12.0085H19.9056C21.1347 12.0085 22.1838 11.5305 23.0559 10.5745C23.9281 9.61858 24.3626 8.46088 24.3626 7.10142C24.3626 5.74197 23.9281 4.58427 23.0559 3.62831C22.1838 2.67235 21.1347 2.19437 19.9056 2.19437H0.625Z" fill="#FCFCFC"/>
<path d="M29.2234 14.203V0.00012207H31.2191V14.203C31.2191 15.1031 31.514 15.8759 32.1037 16.5246C32.6934 17.1733 33.398 17.4961 34.2174 17.4961H48.504C49.3048 17.4961 50.0031 17.1733 50.5897 16.5246C51.1764 15.8759 51.4743 15.1031 51.4743 14.203V0.00012207H53.47V14.203C53.47 15.7207 52.9827 17.015 52.0113 18.0827C51.0398 19.1504 49.8697 19.6842 48.504 19.6842H34.2174C32.8331 19.6842 31.6567 19.1504 30.6853 18.0827C29.7138 17.015 29.2265 15.7207 29.2265 14.203H29.2234Z" fill="#FCFCFC"/>
<path d="M56.7227 2.19449V0.00012207H76.0033C77.7786 0.00012207 79.2964 0.695367 80.5596 2.08275C81.8228 3.47014 82.4529 5.14307 82.4529 7.10155C82.4529 9.06003 81.8197 10.733 80.5596 12.1203C79.2964 13.5077 77.7786 14.1999 76.0033 14.1999H58.7215V19.6842H56.7258V12.0086H76.0064C77.2355 12.0086 78.2845 11.5306 79.1567 10.5747C80.0289 9.6187 80.4634 8.461 80.4634 7.10155C80.4634 5.7421 80.0289 4.58439 79.1567 3.62843C78.2845 2.67247 77.2355 2.19449 76.0064 2.19449H56.7258H56.7227Z" fill="#FCFCFC"/>
<path d="M87.4996 19.6842H85.5039V0.00012207H87.4996V19.6842Z" fill="#FCFCFC"/>
<path d="M93.4372 0.00012207V14.203C93.4372 15.1031 93.7321 15.8759 94.3218 16.5246C94.9115 17.1733 95.6161 17.4961 96.4354 17.4961H115.688V19.6904H96.4354C95.0512 19.6904 93.8748 19.1566 92.9034 18.0889C91.9319 17.0212 91.4446 15.7269 91.4446 14.2092V0.00012207H93.4403H93.4372Z" fill="#FCFCFC"/>
<path d="M119.965 0.00012207V14.203C119.965 15.1031 120.26 15.8759 120.849 16.5246C121.439 17.1733 122.144 17.4961 122.963 17.4961H142.216V19.6904H122.963C121.579 19.6904 120.402 19.1566 119.431 18.0889C118.459 17.0212 117.972 15.7269 117.972 14.2092V0.00012207H119.968H119.965Z" fill="#FCFCFC"/>
<path d="M143.982 2.19449V0.00012207H168.229V2.19449H143.982ZM168.229 10.9409H145.978V17.493H168.229V19.6873H143.982V8.74654H168.229V10.9409Z" fill="#FCFCFC"/>
<path d="M0.625 31.8136V25.8451H1.34197V31.8136H0.625Z" fill="#FCFCFC"/>
<path d="M2.64544 31.8138V27.2947H3.20722L3.2755 27.9837C3.58278 27.5057 4.17249 27.1923 4.84291 27.1923C5.81439 27.1923 6.46307 27.8223 6.46307 28.8217V31.8138H5.75542V28.8466C5.75542 28.2165 5.34572 27.8161 4.66289 27.8161C3.8528 27.8161 3.3593 28.3779 3.34999 29.07V31.8169H2.64233L2.64544 31.8138Z" fill="#FCFCFC"/>
<path d="M7.34497 29.5294C7.34497 28.0117 8.34128 27.1923 9.57037 27.1923C10.7032 27.1923 11.5133 27.8751 11.6437 29.0328H10.9547C10.8367 28.2817 10.3153 27.8037 9.55485 27.8037C8.66097 27.8037 8.06194 28.4617 8.06194 29.5263C8.06194 30.6778 8.76029 31.2923 9.60452 31.2923C10.3308 31.2923 10.8243 30.833 10.9516 30.0477H11.6406C11.5133 31.2147 10.7622 31.9069 9.5952 31.9069C8.12712 31.9069 7.34497 30.833 7.34497 29.5294Z" fill="#FCFCFC"/>
<path d="M12.4163 31.3637C12.4163 31.0657 12.6459 30.8361 12.9532 30.8361C13.2605 30.8361 13.4902 31.0657 13.4902 31.3637C13.4902 31.6617 13.2605 31.9007 12.9532 31.9007C12.6459 31.9007 12.4163 31.671 12.4163 31.3637Z" fill="#FCFCFC"/>
</svg>
